<svg width="1420" height="960" xmlns="http://www.w3.org/2000/svg"><defs><marker id="a" viewBox="0 0 10 10" refX="9" refY="5" markerWidth="7" markerHeight="7" orient="auto"><path d="M0 1L9 5L0 9" fill="none" stroke="#333" stroke-width="1.5"/></marker></defs><g><rect x="15" y="40" width="1090" height="880" fill="#fafafa" stroke="#333" stroke-width="2" rx="2"/><line x1="15" y1="64" x2="1105" y2="64" stroke="#333" stroke-width="1"/><text x="560" y="52" font-family="Arial,sans-serif" font-size="13" font-weight="bold" font-style="normal" text-anchor="middle" fill="#333" dominant-baseline="central">SIRE - Aplicación Flutter</text></g><g><rect x="35" y="75" width="1050" height="225" fill="#eef4ff" stroke="#4472c4" stroke-width="1.5" rx="2"/><line x1="35" y1="95" x2="1085" y2="95" stroke="#4472c4" stroke-width="1"/><text x="560" y="85" font-family="Arial,sans-serif" font-size="11" font-weight="normal" font-style="italic" text-anchor="middle" fill="#4472c4" dominant-baseline="central">«subsystem» Presentación</text></g><g><rect x="35" y="325" width="790" height="245" fill="#eef4ff" stroke="#4472c4" stroke-width="1.5" rx="2"/><line x1="35" y1="345" x2="825" y2="345" stroke="#4472c4" stroke-width="1"/><text x="430" y="335" font-family="Arial,sans-serif" font-size="11" font-weight="normal" font-style="italic" text-anchor="middle" fill="#4472c4" dominant-baseline="central">«subsystem» Dominio</text></g><g><rect x="35" y="595" width="790" height="255" fill="#eef4ff" stroke="#4472c4" stroke-width="1.5" rx="2"/><line x1="35" y1="615" x2="825" y2="615" stroke="#4472c4" stroke-width="1"/><text x="430" y="605" font-family="Arial,sans-serif" font-size="11" font-weight="normal" font-style="italic" text-anchor="middle" fill="#4472c4" dominant-baseline="central">«subsystem» Datos</text></g><g><rect x="880" y="325" width="215" height="525" fill="#f3eeff" stroke="#7030a0" stroke-width="1.5" rx="2"/><line x1="880" y1="345" x2="1095" y2="345" stroke="#7030a0" stroke-width="1"/><text x="987.5" y="335" font-family="Arial,sans-serif" font-size="11" font-weight="normal" font-style="italic" text-anchor="middle" fill="#7030a0" dominant-baseline="central">«subsystem» Core</text></g><g><rect x="60" y="110" width="200" height="125" fill="#fff" stroke="#1a3a6b" stroke-width="1.5" rx="2"/><line x1="60" y1="138" x2="260" y2="138" stroke="#1a3a6b" stroke-width="0.5"/><text x="147" y="124" font-family="Arial,sans-serif" font-size="10" font-weight="normal" font-style="italic" text-anchor="middle" fill="#333" dominant-baseline="central">«component»</text><rect x="239" y="117" width="17" height="13" fill="#fff" stroke="#333" stroke-width="1" rx="0"/><rect x="234" y="119" width="8" height="4" fill="#fff" stroke="#333" stroke-width="1" rx="0"/><rect x="234" y="124" width="8" height="4" fill="#fff" stroke="#333" stroke-width="1" rx="0"/><text x="160" y="186.5" font-family="Arial,sans-serif" font-size="12" font-weight="bold" font-style="normal" text-anchor="middle" fill="#000" dominant-baseline="central">Screens</text></g><g><rect x="325" y="110" width="230" height="125" fill="#fff" stroke="#1a3a6b" stroke-width="1.5" rx="2"/><line x1="325" y1="138" x2="555" y2="138" stroke="#1a3a6b" stroke-width="0.5"/><text x="427" y="124" font-family="Arial,sans-serif" font-size="10" font-weight="normal" font-style="italic" text-anchor="middle" fill="#333" dominant-baseline="central">«component»</text><rect x="534" y="117" width="17" height="13" fill="#fff" stroke="#333" stroke-width="1" rx="0"/><rect x="529" y="119" width="8" height="4" fill="#fff" stroke="#333" stroke-width="1" rx="0"/><rect x="529" y="124" width="8" height="4" fill="#fff" stroke="#333" stroke-width="1" rx="0"/><text x="440" y="177.5" font-family="Arial,sans-serif" font-size="12" font-weight="bold" font-style="normal" text-anchor="middle" fill="#000" dominant-baseline="central">Providers</text><text x="440" y="195.5" font-family="Arial,sans-serif" font-size="10" font-weight="normal" font-style="italic" text-anchor="middle" fill="#666" dominant-baseline="central">Riverpod</text></g><g><rect x="625" y="110" width="200" height="125" fill="#fff" stroke="#1a3a6b" stroke-width="1.5" rx="2"/><line x1="625" y1="138" x2="825" y2="138" stroke="#1a3a6b" stroke-width="0.5"/><text x="712" y="124" font-family="Arial,sans-serif" font-size="10" font-weight="normal" font-style="italic" text-anchor="middle" fill="#333" dominant-baseline="central">«component»</text><rect x="804" y="117" width="17" height="13" fill="#fff" stroke="#333" stroke-width="1" rx="0"/><rect x="799" y="119" width="8" height="4" fill="#fff" stroke="#333" stroke-width="1" rx="0"/><rect x="799" y="124" width="8" height="4" fill="#fff" stroke="#333" stroke-width="1" rx="0"/><text x="725" y="186.5" font-family="Arial,sans-serif" font-size="12" font-weight="bold" font-style="normal" text-anchor="middle" fill="#000" dominant-baseline="central">Widgets</text></g><g><rect x="60" y="365" width="185" height="125" fill="#fff" stroke="#1a3a6b" stroke-width="1.5" rx="2"/><line x1="60" y1="393" x2="245" y2="393" stroke="#1a3a6b" stroke-width="0.5"/><text x="139.5" y="379" font-family="Arial,sans-serif" font-size="10" font-weight="normal" font-style="italic" text-anchor="middle" fill="#333" dominant-baseline="central">«component»</text><rect x="224" y="372" width="17" height="13" fill="#fff" stroke="#333" stroke-width="1" rx="0"/><rect x="219" y="374" width="8" height="4" fill="#fff" stroke="#333" stroke-width="1" rx="0"/><rect x="219" y="379" width="8" height="4" fill="#fff" stroke="#333" stroke-width="1" rx="0"/><text x="152.5" y="441.5" font-family="Arial,sans-serif" font-size="12" font-weight="bold" font-style="normal" text-anchor="middle" fill="#000" dominant-baseline="central">Entities</text></g><g><rect x="305" y="365" width="245" height="125" fill="#fff" stroke="#1a3a6b" stroke-width="1.5" rx="2"/><line x1="305" y1="393" x2="550" y2="393" stroke="#1a3a6b" stroke-width="0.5"/><text x="414.5" y="379" font-family="Arial,sans-serif" font-size="10" font-weight="normal" font-style="italic" text-anchor="middle" fill="#333" dominant-baseline="central">«component»</text><rect x="529" y="372" width="17" height="13" fill="#fff" stroke="#333" stroke-width="1" rx="0"/><rect x="524" y="374" width="8" height="4" fill="#fff" stroke="#333" stroke-width="1" rx="0"/><rect x="524" y="379" width="8" height="4" fill="#fff" stroke="#333" stroke-width="1" rx="0"/><text x="427.5" y="432.5" font-family="Arial,sans-serif" font-size="12" font-weight="bold" font-style="normal" text-anchor="middle" fill="#000" dominant-baseline="central">Repository</text><text x="427.5" y="450.5" font-family="Arial,sans-serif" font-size="10" font-weight="normal" font-style="italic" text-anchor="middle" fill="#666" dominant-baseline="central">Contracts</text></g><g><rect x="615" y="365" width="190" height="125" fill="#fff" stroke="#1a3a6b" stroke-width="1.5" rx="2"/><line x1="615" y1="393" x2="805" y2="393" stroke="#1a3a6b" stroke-width="0.5"/><text x="697" y="379" font-family="Arial,sans-serif" font-size="10" font-weight="normal" font-style="italic" text-anchor="middle" fill="#333" dominant-baseline="central">«component»</text><rect x="784" y="372" width="17" height="13" fill="#fff" stroke="#333" stroke-width="1" rx="0"/><rect x="779" y="374" width="8" height="4" fill="#fff" stroke="#333" stroke-width="1" rx="0"/><rect x="779" y="379" width="8" height="4" fill="#fff" stroke="#333" stroke-width="1" rx="0"/><text x="710" y="441.5" font-family="Arial,sans-serif" font-size="12" font-weight="bold" font-style="normal" text-anchor="middle" fill="#000" dominant-baseline="central">Use Cases</text></g><g><rect x="60" y="635" width="185" height="125" fill="#fff" stroke="#1a3a6b" stroke-width="1.5" rx="2"/><line x1="60" y1="663" x2="245" y2="663" stroke="#1a3a6b" stroke-width="0.5"/><text x="139.5" y="649" font-family="Arial,sans-serif" font-size="10" font-weight="normal" font-style="italic" text-anchor="middle" fill="#333" dominant-baseline="central">«component»</text><rect x="224" y="642" width="17" height="13" fill="#fff" stroke="#333" stroke-width="1" rx="0"/><rect x="219" y="644" width="8" height="4" fill="#fff" stroke="#333" stroke-width="1" rx="0"/><rect x="219" y="649" width="8" height="4" fill="#fff" stroke="#333" stroke-width="1" rx="0"/><text x="152.5" y="702.5" font-family="Arial,sans-serif" font-size="12" font-weight="bold" font-style="normal" text-anchor="middle" fill="#000" dominant-baseline="central">Models</text><text x="152.5" y="720.5" font-family="Arial,sans-serif" font-size="10" font-weight="normal" font-style="italic" text-anchor="middle" fill="#666" dominant-baseline="central">DTOs</text></g><g><rect x="305" y="635" width="245" height="125" fill="#fff" stroke="#1a3a6b" stroke-width="1.5" rx="2"/><line x1="305" y1="663" x2="550" y2="663" stroke="#1a3a6b" stroke-width="0.5"/><text x="414.5" y="649" font-family="Arial,sans-serif" font-size="10" font-weight="normal" font-style="italic" text-anchor="middle" fill="#333" dominant-baseline="central">«component»</text><rect x="529" y="642" width="17" height="13" fill="#fff" stroke="#333" stroke-width="1" rx="0"/><rect x="524" y="644" width="8" height="4" fill="#fff" stroke="#333" stroke-width="1" rx="0"/><rect x="524" y="649" width="8" height="4" fill="#fff" stroke="#333" stroke-width="1" rx="0"/><text x="427.5" y="702.5" font-family="Arial,sans-serif" font-size="12" font-weight="bold" font-style="normal" text-anchor="middle" fill="#000" dominant-baseline="central">Repository</text><text x="427.5" y="720.5" font-family="Arial,sans-serif" font-size="10" font-weight="normal" font-style="italic" text-anchor="middle" fill="#666" dominant-baseline="central">Implementations</text></g><g><rect x="615" y="635" width="190" height="125" fill="#fff" stroke="#1a3a6b" stroke-width="1.5" rx="2"/><line x1="615" y1="663" x2="805" y2="663" stroke="#1a3a6b" stroke-width="0.5"/><text x="697" y="649" font-family="Arial,sans-serif" font-size="10" font-weight="normal" font-style="italic" text-anchor="middle" fill="#333" dominant-baseline="central">«component»</text><rect x="784" y="642" width="17" height="13" fill="#fff" stroke="#333" stroke-width="1" rx="0"/><rect x="779" y="644" width="8" height="4" fill="#fff" stroke="#333" stroke-width="1" rx="0"/><rect x="779" y="649" width="8" height="4" fill="#fff" stroke="#333" stroke-width="1" rx="0"/><text x="710" y="711.5" font-family="Arial,sans-serif" font-size="12" font-weight="bold" font-style="normal" text-anchor="middle" fill="#000" dominant-baseline="central">Datasources</text></g><g><rect x="893" y="365" width="185" height="90" fill="#fff" stroke="#1a3a6b" stroke-width="1.5" rx="2"/><line x1="893" y1="393" x2="1078" y2="393" stroke="#1a3a6b" stroke-width="0.5"/><text x="972.5" y="379" font-family="Arial,sans-serif" font-size="10" font-weight="normal" font-style="italic" text-anchor="middle" fill="#333" dominant-baseline="central">«component»</text><rect x="1057" y="372" width="17" height="13" fill="#fff" stroke="#333" stroke-width="1" rx="0"/><rect x="1052" y="374" width="8" height="4" fill="#fff" stroke="#333" stroke-width="1" rx="0"/><rect x="1052" y="379" width="8" height="4" fill="#fff" stroke="#333" stroke-width="1" rx="0"/><text x="985.5" y="424" font-family="Arial,sans-serif" font-size="12" font-weight="bold" font-style="normal" text-anchor="middle" fill="#000" dominant-baseline="central">NetworkClient</text></g><g><rect x="893" y="470" width="185" height="90" fill="#fff" stroke="#1a3a6b" stroke-width="1.5" rx="2"/><line x1="893" y1="498" x2="1078" y2="498" stroke="#1a3a6b" stroke-width="0.5"/><text x="972.5" y="484" font-family="Arial,sans-serif" font-size="10" font-weight="normal" font-style="italic" text-anchor="middle" fill="#333" dominant-baseline="central">«component»</text><rect x="1057" y="477" width="17" height="13" fill="#fff" stroke="#333" stroke-width="1" rx="0"/><rect x="1052" y="479" width="8" height="4" fill="#fff" stroke="#333" stroke-width="1" rx="0"/><rect x="1052" y="484" width="8" height="4" fill="#fff" stroke="#333" stroke-width="1" rx="0"/><text x="985.5" y="529" font-family="Arial,sans-serif" font-size="12" font-weight="bold" font-style="normal" text-anchor="middle" fill="#000" dominant-baseline="central">SupabaseClient</text></g><g><rect x="893" y="575" width="185" height="80" fill="#fff" stroke="#1a3a6b" stroke-width="1.5" rx="2"/><line x1="893" y1="603" x2="1078" y2="603" stroke="#1a3a6b" stroke-width="0.5"/><text x="972.5" y="589" font-family="Arial,sans-serif" font-size="10" font-weight="normal" font-style="italic" text-anchor="middle" fill="#333" dominant-baseline="central">«component»</text><rect x="1057" y="582" width="17" height="13" fill="#fff" stroke="#333" stroke-width="1" rx="0"/><rect x="1052" y="584" width="8" height="4" fill="#fff" stroke="#333" stroke-width="1" rx="0"/><rect x="1052" y="589" width="8" height="4" fill="#fff" stroke="#333" stroke-width="1" rx="0"/><text x="985.5" y="629" font-family="Arial,sans-serif" font-size="12" font-weight="bold" font-style="normal" text-anchor="middle" fill="#000" dominant-baseline="central">AppRouter</text></g><g><rect x="893" y="668" width="185" height="80" fill="#fff" stroke="#1a3a6b" stroke-width="1.5" rx="2"/><line x1="893" y1="696" x2="1078" y2="696" stroke="#1a3a6b" stroke-width="0.5"/><text x="972.5" y="682" font-family="Arial,sans-serif" font-size="10" font-weight="normal" font-style="italic" text-anchor="middle" fill="#333" dominant-baseline="central">«component»</text><rect x="1057" y="675" width="17" height="13" fill="#fff" stroke="#333" stroke-width="1" rx="0"/><rect x="1052" y="677" width="8" height="4" fill="#fff" stroke="#333" stroke-width="1" rx="0"/><rect x="1052" y="682" width="8" height="4" fill="#fff" stroke="#333" stroke-width="1" rx="0"/><text x="985.5" y="722" font-family="Arial,sans-serif" font-size="12" font-weight="bold" font-style="normal" text-anchor="middle" fill="#000" dominant-baseline="central">AppTheme</text></g><g><rect x="1130" y="415" width="270" height="100" fill="#fff" stroke="#1a3a6b" stroke-width="1.5" rx="2"/><line x1="1130" y1="443" x2="1400" y2="443" stroke="#1a3a6b" stroke-width="0.5"/><text x="1252" y="429" font-family="Arial,sans-serif" font-size="10" font-weight="normal" font-style="italic" text-anchor="middle" fill="#333" dominant-baseline="central">«component»</text><rect x="1379" y="422" width="17" height="13" fill="#fff" stroke="#333" stroke-width="1" rx="0"/><rect x="1374" y="424" width="8" height="4" fill="#fff" stroke="#333" stroke-width="1" rx="0"/><rect x="1374" y="429" width="8" height="4" fill="#fff" stroke="#333" stroke-width="1" rx="0"/><text x="1265" y="470" font-family="Arial,sans-serif" font-size="12" font-weight="bold" font-style="normal" text-anchor="middle" fill="#000" dominant-baseline="central">Backend REST</text><text x="1265" y="488" font-family="Arial,sans-serif" font-size="10" font-weight="normal" font-style="italic" text-anchor="middle" fill="#666" dominant-baseline="central">Node.js + Fastify · Render</text></g><g><rect x="1130" y="545" width="270" height="100" fill="#fff" stroke="#1a3a6b" stroke-width="1.5" rx="2"/><line x1="1130" y1="573" x2="1400" y2="573" stroke="#1a3a6b" stroke-width="0.5"/><text x="1252" y="559" font-family="Arial,sans-serif" font-size="10" font-weight="normal" font-style="italic" text-anchor="middle" fill="#333" dominant-baseline="central">«component»</text><rect x="1379" y="552" width="17" height="13" fill="#fff" stroke="#333" stroke-width="1" rx="0"/><rect x="1374" y="554" width="8" height="4" fill="#fff" stroke="#333" stroke-width="1" rx="0"/><rect x="1374" y="559" width="8" height="4" fill="#fff" stroke="#333" stroke-width="1" rx="0"/><text x="1265" y="600" font-family="Arial,sans-serif" font-size="12" font-weight="bold" font-style="normal" text-anchor="middle" fill="#000" dominant-baseline="central">Supabase</text><text x="1265" y="618" font-family="Arial,sans-serif" font-size="10" font-weight="normal" font-style="italic" text-anchor="middle" fill="#666" dominant-baseline="central">Auth · Realtime · Storage</text></g><g><line x1="260" y1="172" x2="325" y2="172" stroke="#333" stroke-width="1.2" stroke-dasharray="6,3" marker-end="url(#a)"/></g><g><line x1="440" y1="235" x2="427" y2="365" stroke="#333" stroke-width="1.2" stroke-dasharray="6,3" marker-end="url(#a)"/><text x="443" y="297" font-family="Arial,sans-serif" font-size="9" font-weight="normal" font-style="italic" text-anchor="start" fill="#555" dominant-baseline="central">«use»</text></g><g><line x1="470" y1="235" x2="710" y2="365" stroke="#333" stroke-width="1.2" stroke-dasharray="6,3" marker-end="url(#a)"/><text x="574" y="286" font-family="Arial,sans-serif" font-size="9" font-weight="normal" font-style="italic" text-anchor="start" fill="#555" dominant-baseline="central">«use»</text></g><g><line x1="615" y1="427" x2="550" y2="427" stroke="#333" stroke-width="1.2" stroke-dasharray="6,3" marker-end="url(#a)"/></g><g><line x1="427" y1="490" x2="427" y2="554.5" stroke="#333" stroke-width="1"/><circle cx="427" cy="562.5" r="8" fill="#fff" stroke="#1a3a6b" stroke-width="1.5"/><path d="M 417 562.5 A 10 10 0 0,1 437 562.5" fill="none" stroke="#1a3a6b" stroke-width="1.5"/><line x1="427" y1="572.5" x2="427" y2="635" stroke="#333" stroke-width="1"/><text x="442" y="562.5" font-family="Arial,sans-serif" font-size="9" font-weight="normal" font-style="italic" text-anchor="start" fill="#555" dominant-baseline="central">IRepository</text></g><g><line x1="550" y1="697" x2="615" y2="697" stroke="#333" stroke-width="1.2" stroke-dasharray="6,3" marker-end="url(#a)"/></g><g><path d="M 805,680 L 845,680 L 845,410 L 893,410" fill="none" stroke="#333" stroke-width="1.2" stroke-dasharray="6,3" marker-end="url(#a)"/><text x="848" y="542" font-family="Arial,sans-serif" font-size="9" font-weight="normal" font-style="italic" text-anchor="start" fill="#555" dominant-baseline="central">«use»</text></g><g><path d="M 805,714 L 860,714 L 860,515 L 893,515" fill="none" stroke="#333" stroke-width="1.2" stroke-dasharray="6,3" marker-end="url(#a)"/><text x="863" y="613" font-family="Arial,sans-serif" font-size="9" font-weight="normal" font-style="italic" text-anchor="start" fill="#555" dominant-baseline="central">«use»</text></g><g><line x1="1078" y1="410" x2="1130" y2="465" stroke="#333" stroke-width="1.2" stroke-dasharray="6,3" marker-end="url(#a)"/><text x="1082" y="431" font-family="Arial,sans-serif" font-size="9" font-weight="normal" font-style="italic" text-anchor="start" fill="#555" dominant-baseline="central">«use»</text></g><g><line x1="1078" y1="515" x2="1130" y2="595" stroke="#333" stroke-width="1.2" stroke-dasharray="6,3" marker-end="url(#a)"/><text x="1082" y="552" font-family="Arial,sans-serif" font-size="9" font-weight="normal" font-style="italic" text-anchor="start" fill="#555" dominant-baseline="central">«use»</text></g></svg>